<mxfile host="Electron" modified="2024-06-01T12:25:38.464Z" agent="Mozilla/5.0 (Windows NT 10.0; Win64; x64) AppleWebKit/537.36 (KHTML, like Gecko) draw.io/24.4.13 Chrome/124.0.6367.207 Electron/30.0.6 Safari/537.36" etag="6-BaHTCDRT_BpzvdoLVb" version="24.4.13" type="device">
  <diagram name="Page-1" id="2YBvvXClWsGukQMizWep">
    <mxGraphModel dx="819" dy="478" grid="1" gridSize="10" guides="1" tooltips="1" connect="1" arrows="1" fold="1" page="1" pageScale="1" pageWidth="850" pageHeight="1100" math="0" shadow="0">
      <root>
        <mxCell id="0" />
        <mxCell id="1" parent="0" />
        <mxCell id="8eVpOs63ojvwICp54DAG-4" value="Login UI" style="shape=umlLifeline;perimeter=lifelinePerimeter;whiteSpace=wrap;html=1;container=1;dropTarget=0;collapsible=0;recursiveResize=0;outlineConnect=0;portConstraint=eastwest;newEdgeStyle={&quot;curved&quot;:0,&quot;rounded&quot;:0};" vertex="1" parent="1">
          <mxGeometry x="240" y="80" width="140" height="240" as="geometry" />
        </mxCell>
        <mxCell id="8eVpOs63ojvwICp54DAG-7" value="" style="html=1;points=[[0,0,0,0,5],[0,1,0,0,-5],[1,0,0,0,5],[1,1,0,0,-5]];perimeter=orthogonalPerimeter;outlineConnect=0;targetShapes=umlLifeline;portConstraint=eastwest;newEdgeStyle={&quot;curved&quot;:0,&quot;rounded&quot;:0};" vertex="1" parent="8eVpOs63ojvwICp54DAG-4">
          <mxGeometry x="65" y="80" width="10" height="60" as="geometry" />
        </mxCell>
        <mxCell id="8eVpOs63ojvwICp54DAG-5" value="" style="shape=umlLifeline;perimeter=lifelinePerimeter;whiteSpace=wrap;html=1;container=1;dropTarget=0;collapsible=0;recursiveResize=0;outlineConnect=0;portConstraint=eastwest;newEdgeStyle={&quot;curved&quot;:0,&quot;rounded&quot;:0};participant=umlActor;" vertex="1" parent="1">
          <mxGeometry x="100" y="60" width="50" height="340" as="geometry" />
        </mxCell>
        <mxCell id="8eVpOs63ojvwICp54DAG-6" value="ID / PW" style="html=1;verticalAlign=bottom;endArrow=block;curved=0;rounded=0;" edge="1" parent="1">
          <mxGeometry width="80" relative="1" as="geometry">
            <mxPoint x="125.02380952380952" y="163" as="sourcePoint" />
            <mxPoint x="305" y="163" as="targetPoint" />
          </mxGeometry>
        </mxCell>
        <mxCell id="8eVpOs63ojvwICp54DAG-9" value="Press Login BTN" style="html=1;verticalAlign=bottom;endArrow=block;curved=0;rounded=0;" edge="1" parent="1">
          <mxGeometry width="80" relative="1" as="geometry">
            <mxPoint x="125.02380952380952" y="183" as="sourcePoint" />
            <mxPoint x="305" y="183" as="targetPoint" />
          </mxGeometry>
        </mxCell>
        <mxCell id="8eVpOs63ojvwICp54DAG-10" value="Alt" style="shape=umlFrame;whiteSpace=wrap;html=1;pointerEvents=0;" vertex="1" parent="1">
          <mxGeometry x="60" y="230" width="480" height="120" as="geometry" />
        </mxCell>
        <mxCell id="8eVpOs63ojvwICp54DAG-11" value="" style="edgeStyle=orthogonalEdgeStyle;rounded=0;orthogonalLoop=1;jettySize=auto;html=1;curved=0;fontFamily=Helvetica;fontSize=12;fontColor=default;" edge="1" parent="1">
          <mxGeometry relative="1" as="geometry">
            <mxPoint x="315" y="190" as="sourcePoint" />
            <mxPoint x="315" y="210" as="targetPoint" />
            <Array as="points">
              <mxPoint x="338" y="190" />
              <mxPoint x="338" y="210" />
            </Array>
          </mxGeometry>
        </mxCell>
        <mxCell id="8eVpOs63ojvwICp54DAG-12" value="Check is Valid" style="text;html=1;align=center;verticalAlign=middle;resizable=0;points=[];autosize=1;strokeColor=none;fillColor=none;fontFamily=Helvetica;fontSize=12;fontColor=default;" vertex="1" parent="1">
          <mxGeometry x="330" y="190" width="100" height="30" as="geometry" />
        </mxCell>
        <mxCell id="8eVpOs63ojvwICp54DAG-13" value="&lt;font style=&quot;font-size: 8px;&quot;&gt;Login == true&lt;/font&gt;" style="text;html=1;align=center;verticalAlign=middle;resizable=0;points=[];autosize=1;strokeColor=none;fillColor=none;fontFamily=Helvetica;fontSize=12;fontColor=default;" vertex="1" parent="1">
          <mxGeometry x="60" y="250" width="70" height="30" as="geometry" />
        </mxCell>
        <mxCell id="8eVpOs63ojvwICp54DAG-14" value="Main UI" style="shape=umlLifeline;perimeter=lifelinePerimeter;whiteSpace=wrap;html=1;container=1;dropTarget=0;collapsible=0;recursiveResize=0;outlineConnect=0;portConstraint=eastwest;newEdgeStyle={&quot;curved&quot;:0,&quot;rounded&quot;:0};" vertex="1" parent="1">
          <mxGeometry x="390" y="280" width="140" height="120" as="geometry" />
        </mxCell>
        <mxCell id="8eVpOs63ojvwICp54DAG-16" value="login" style="html=1;verticalAlign=bottom;endArrow=block;curved=0;rounded=0;fontFamily=Helvetica;fontSize=12;fontColor=default;" edge="1" parent="1">
          <mxGeometry width="80" relative="1" as="geometry">
            <mxPoint x="310" y="304.71" as="sourcePoint" />
            <mxPoint x="390" y="304.71" as="targetPoint" />
          </mxGeometry>
        </mxCell>
        <mxCell id="8eVpOs63ojvwICp54DAG-18" value="" style="ellipse;html=1;shape=endState;fillColor=#000000;strokeColor=none;pointerEvents=0;align=center;verticalAlign=middle;fontFamily=Helvetica;fontSize=12;fontColor=default;" vertex="1" parent="1">
          <mxGeometry x="300" y="310" width="20" height="20" as="geometry" />
        </mxCell>
        <mxCell id="8eVpOs63ojvwICp54DAG-20" value="Loop" style="shape=umlFrame;whiteSpace=wrap;html=1;pointerEvents=0;strokeColor=default;align=center;verticalAlign=middle;fontFamily=Helvetica;fontSize=12;fontColor=default;fillColor=default;" vertex="1" parent="1">
          <mxGeometry x="60" y="130" width="480" height="220" as="geometry" />
        </mxCell>
        <mxCell id="8eVpOs63ojvwICp54DAG-21" value="" style="ellipse;html=1;shape=endState;fillColor=#000000;strokeColor=none;pointerEvents=0;align=center;verticalAlign=middle;fontFamily=Helvetica;fontSize=12;fontColor=default;" vertex="1" parent="1">
          <mxGeometry x="115" y="390" width="20" height="20" as="geometry" />
        </mxCell>
        <mxCell id="8eVpOs63ojvwICp54DAG-22" value="" style="ellipse;html=1;shape=endState;fillColor=#000000;strokeColor=none;pointerEvents=0;align=center;verticalAlign=middle;fontFamily=Helvetica;fontSize=12;fontColor=default;" vertex="1" parent="1">
          <mxGeometry x="450" y="390" width="20" height="20" as="geometry" />
        </mxCell>
        <mxCell id="8eVpOs63ojvwICp54DAG-23" value="&amp;nbsp; &amp;nbsp; &amp;nbsp; &amp;nbsp; &amp;nbsp; &amp;nbsp; &amp;nbsp; &amp;nbsp; &amp;nbsp; &amp;nbsp; &amp;nbsp; &amp;nbsp; &amp;nbsp; &amp;nbsp; &amp;nbsp; &amp;nbsp; &amp;nbsp; &amp;nbsp; &amp;nbsp; &amp;nbsp; &amp;nbsp; Do Something in here&amp;nbsp; &amp;nbsp; &amp;nbsp; &amp;nbsp; &amp;nbsp; &amp;nbsp; &amp;nbsp; &amp;nbsp; &amp;nbsp; &amp;nbsp; &amp;nbsp; &amp;nbsp;" style="text;html=1;align=center;verticalAlign=middle;resizable=0;points=[];autosize=1;strokeColor=default;fillColor=none;fontFamily=Helvetica;fontSize=12;fontColor=default;" vertex="1" parent="1">
          <mxGeometry x="115" y="360" width="360" height="30" as="geometry" />
        </mxCell>
        <mxCell id="8eVpOs63ojvwICp54DAG-25" value="&lt;font style=&quot;font-size: 8px;&quot;&gt;Login == False&lt;/font&gt;" style="text;html=1;align=center;verticalAlign=middle;resizable=0;points=[];autosize=1;strokeColor=none;fillColor=none;fontFamily=Helvetica;fontSize=12;fontColor=default;" vertex="1" parent="1">
          <mxGeometry x="50" y="150" width="80" height="30" as="geometry" />
        </mxCell>
      </root>
    </mxGraphModel>
  </diagram>
</mxfile>
